<svg xmlns="http://www.w3.org/2000/svg" width="512" height="512" viewBox="0 0 512 512" role="img" aria-label="WorshipDeck Standalone Mark (Gold)">
  <title>WorshipDeck Standalone Mark (Gold)</title>
  <defs>
    <rect id="mk-gd-card" x="158.2" y="240.1" width="308" height="173.25" rx="19" ry="19"
          fill="none" stroke="#B8860B" stroke-width="24" stroke-linejoin="round"/>
    <rect id="mk-gd-mask" x="158.2" y="240.1" width="308" height="173.25" rx="19" ry="19"
          fill="black" stroke="black" stroke-width="25.5" stroke-linejoin="round"/>
    <mask id="mk-gd-mb" maskUnits="userSpaceOnUse" x="0" y="0" width="512" height="512">
      <rect width="512" height="512" fill="white"/>
      <use href="#mk-gd-mask" transform="rotate(-22 158.2 413.3)"/>
      <use href="#mk-gd-mask" transform="rotate(0 158.2 413.3)"/>
    </mask>
    <mask id="mk-gd-mm" maskUnits="userSpaceOnUse" x="0" y="0" width="512" height="512">
      <rect width="512" height="512" fill="white"/>
      <use href="#mk-gd-mask" transform="rotate(0 158.2 413.3)"/>
    </mask>
    <clipPath id="mk-gd-clip">
      <rect x="170.2" y="252.1" width="284.0" height="149.25" rx="13.0" ry="13.0"/>
    </clipPath>
  </defs>
  <!-- 3 Fanned 16:9 Frames -->
  <g mask="url(#mk-gd-mb)"><use href="#mk-gd-card" transform="rotate(-44 158.2 413.3)"/></g>
  <g mask="url(#mk-gd-mm)"><use href="#mk-gd-card" transform="rotate(-22 158.2 413.3)"/></g>
  <use href="#mk-gd-card" transform="rotate(0 158.2 413.3)"/>
  <!-- Screen Glass Glare (Arah B /) -->
  <g clip-path="url(#mk-gd-clip)">
    <polygon points="345,252.1 403,252.1 283,401.35 225,401.35" fill="#B8860B" opacity="0.22"/>
    <polygon points="418,252.1 434,252.1 314,401.35 298,401.35" fill="#B8860B" opacity="0.14"/>
  </g>

</svg>
